<?xml version="1.0" encoding="UTF-8"?>
<!DOCTYPE svg PUBLIC "-//W3C//DTD SVG 1.1//EN" "http://www.w3.org/Graphics/SVG/1.1/DTD/svg11.dtd">
<svg xmlns="http://www.w3.org/2000/svg" version="1.1" width="500px" height="500px" style="shape-rendering:geometricPrecision; text-rendering:geometricPrecision; image-rendering:optimizeQuality; fill-rule:evenodd; clip-rule:evenodd" xmlns:xlink="http://www.w3.org/1999/xlink">
<g><path style="opacity:0.999" fill="#6fc1de" d="M 388.5,82.5 C 387.5,83.1667 386.5,83.8333 385.5,84.5C 381.196,79.3643 376.363,74.6976 371,70.5C 370.53,69.4232 370.697,68.4232 371.5,67.5C 388.975,52.1982 406.641,37.0315 424.5,22C 426.691,20.0806 429.024,18.7473 431.5,18C 436,23.1667 440.5,28.3333 445,33.5C 445.667,34.1667 445.667,34.8333 445,35.5C 426.566,51.7781 407.733,67.4448 388.5,82.5 Z"/></g>
<g><path style="opacity:1" fill="#f8cb8c" d="M 263.5,26.5 C 267.567,28.0538 271.9,28.7204 276.5,28.5C 310.638,32.5749 340.971,45.4083 367.5,67C 368.793,67.49 370.127,67.6567 371.5,67.5C 370.697,68.4232 370.53,69.4232 371,70.5C 376.363,74.6976 381.196,79.3643 385.5,84.5C 386.167,85.8333 387.167,86.8333 388.5,87.5C 413.283,113.692 428.95,144.692 435.5,180.5C 435.444,185.731 436.111,190.731 437.5,195.5C 438.748,205.476 438.748,215.476 437.5,225.5C 436.011,229.236 435.344,233.236 435.5,237.5C 431.154,267.84 419.487,294.84 400.5,318.5C 399.167,319.833 397.833,319.833 396.5,318.5C 392.167,312.167 386.833,306.833 380.5,302.5C 381.496,302.586 382.329,302.252 383,301.5C 383.803,298.756 384.803,296.089 386,293.5C 386.333,281.167 386.667,268.833 387,256.5C 391.743,239.348 399.41,223.682 410,209.5C 417.175,194.585 415.842,180.585 406,167.5C 399.86,162.272 394.194,156.605 389,150.5C 387.138,146.581 385.471,142.581 384,138.5C 383.629,127.339 380.629,117.006 375,107.5C 370.633,102.796 365.466,99.2959 359.5,97C 350.115,96.0952 340.781,95.0952 331.5,94C 328.333,92.1667 325.833,89.6667 324,86.5C 320.551,75.7578 314.718,66.5911 306.5,59C 302.186,56.3399 297.519,54.6732 292.5,54C 275.289,51.8312 258.622,53.8312 242.5,60C 228.954,61.5757 215.954,59.5757 203.5,54C 181.912,48.7132 168.412,56.8799 163,78.5C 162.65,85.2667 161.65,91.9334 160,98.5C 159.027,102.406 156.527,104.573 152.5,105C 142.528,106.046 132.528,106.713 122.5,107C 112.667,108.833 106.833,114.667 105,124.5C 104.258,134.897 104.758,145.23 106.5,155.5C 106.99,163.054 104.657,169.554 99.5,175C 79.9015,185.526 75.0681,201.026 85,221.5C 92.3371,229.17 100.004,236.504 108,243.5C 112.531,250.929 115.365,258.929 116.5,267.5C 116.5,272.5 116.5,277.5 116.5,282.5C 109.418,288.246 103.418,294.913 98.5,302.5C 97.5,303.167 96.5,303.833 95.5,304.5C 95.5,303.833 95.1667,303.5 94.5,303.5C 94.0679,302.29 93.4013,301.29 92.5,300.5C 81.3199,283.453 73.9866,264.787 70.5,244.5C 70.3104,239.63 69.6437,234.964 68.5,230.5C 62.269,166.02 82.6023,111.52 129.5,67C 144.474,54.3443 161.141,44.511 179.5,37.5C 185.166,36.6096 190.5,34.943 195.5,32.5C 202.19,30.163 209.19,28.8296 216.5,28.5C 222.389,28.5503 228.056,27.8836 233.5,26.5C 243.492,25.2834 253.492,25.2834 263.5,26.5 Z M 252.5,173.5 C 253.749,175.829 253.082,177.662 250.5,179C 240.167,187.333 229.833,195.667 219.5,204C 218.255,204.791 216.922,205.291 215.5,205.5C 213.273,188.558 220.273,177.391 236.5,172C 241.962,171.246 247.296,171.746 252.5,173.5 Z M 270.5,193.5 C 276.344,203.94 276.844,214.607 272,225.5C 258.469,238.084 244.302,238.751 229.5,227.5C 230.203,225.284 231.536,223.451 233.5,222C 244.167,213.333 254.833,204.667 265.5,196C 267.078,194.906 268.745,194.072 270.5,193.5 Z"/></g>
<g><path style="opacity:0.855" fill="#fce4c1" d="M 233.5,26.5 C 228.056,27.8836 222.389,28.5503 216.5,28.5C 221.929,26.9879 227.596,26.3213 233.5,26.5 Z"/></g>
<g><path style="opacity:0.459" fill="#fdeacf" d="M 263.5,26.5 C 268.049,26.6245 272.382,27.2911 276.5,28.5C 271.9,28.7204 267.567,28.0538 263.5,26.5 Z"/></g>
<g><path style="opacity:0.878" fill="#fce1bb" d="M 195.5,32.5 C 190.5,34.943 185.166,36.6096 179.5,37.5C 184.5,35.057 189.834,33.3904 195.5,32.5 Z"/></g>
<g><path style="opacity:1" fill="#f08aaf" d="M 380.5,302.5 C 377.843,302.065 375.509,301.065 373.5,299.5C 369.609,297.993 365.442,297.326 361,297.5C 357.979,297.502 355.146,297.836 352.5,298.5C 341.819,301.604 332.985,307.604 326,316.5C 324.624,315.295 323.458,313.962 322.5,312.5C 321.415,310.413 319.749,309.08 317.5,308.5C 316.5,308.167 315.833,307.5 315.5,306.5C 315.027,305.094 314.027,304.427 312.5,304.5C 312.027,303.094 311.027,302.427 309.5,302.5C 304.86,300.18 300.193,297.847 295.5,295.5C 293.383,293.345 290.716,292.345 287.5,292.5C 268.595,287.955 249.929,288.788 231.5,295C 226.1,297.399 220.933,300.232 216,303.5C 213.066,299.288 209.899,295.288 206.5,291.5C 206.5,289.5 205.5,288.5 203.5,288.5C 201.142,286.471 198.808,284.471 196.5,282.5C 196.027,281.094 195.027,280.427 193.5,280.5C 194.929,279.766 195.929,278.599 196.5,277C 191.284,270.056 184.284,266.223 175.5,265.5C 175.961,268.303 177.295,270.637 179.5,272.5C 178.167,272.5 176.833,272.5 175.5,272.5C 163.162,269.874 150.829,269.874 138.5,272.5C 135.99,272.054 133.99,272.72 132.5,274.5C 127.872,276.814 123.205,279.147 118.5,281.5C 117.833,276.833 117.167,272.167 116.5,267.5C 115.365,258.929 112.531,250.929 108,243.5C 100.004,236.504 92.3371,229.17 85,221.5C 75.0681,201.026 79.9015,185.526 99.5,175C 104.657,169.554 106.99,163.054 106.5,155.5C 104.758,145.23 104.258,134.897 105,124.5C 106.833,114.667 112.667,108.833 122.5,107C 132.528,106.713 142.528,106.046 152.5,105C 156.527,104.573 159.027,102.406 160,98.5C 161.65,91.9334 162.65,85.2667 163,78.5C 168.412,56.8799 181.912,48.7132 203.5,54C 215.954,59.5757 228.954,61.5757 242.5,60C 258.622,53.8312 275.289,51.8312 292.5,54C 297.519,54.6732 302.186,56.3399 306.5,59C 314.718,66.5911 320.551,75.7578 324,86.5C 325.833,89.6667 328.333,92.1667 331.5,94C 340.781,95.0952 350.115,96.0952 359.5,97C 365.466,99.2959 370.633,102.796 375,107.5C 380.629,117.006 383.629,127.339 384,138.5C 385.471,142.581 387.138,146.581 389,150.5C 394.194,156.605 399.86,162.272 406,167.5C 415.842,180.585 417.175,194.585 410,209.5C 399.41,223.682 391.743,239.348 387,256.5C 386.667,268.833 386.333,281.167 386,293.5C 384.803,296.089 383.803,298.756 383,301.5C 382.329,302.252 381.496,302.586 380.5,302.5 Z M 252.5,173.5 C 253.749,175.829 253.082,177.662 250.5,179C 240.167,187.333 229.833,195.667 219.5,204C 218.255,204.791 216.922,205.291 215.5,205.5C 213.273,188.558 220.273,177.391 236.5,172C 241.962,171.246 247.296,171.746 252.5,173.5 Z M 270.5,193.5 C 276.344,203.94 276.844,214.607 272,225.5C 258.469,238.084 244.302,238.751 229.5,227.5C 230.203,225.284 231.536,223.451 233.5,222C 244.167,213.333 254.833,204.667 265.5,196C 267.078,194.906 268.745,194.072 270.5,193.5 Z"/></g>
<g><path style="opacity:1" fill="#6cbbda" d="M 189.5,77.5 C 193.23,78.0558 196.397,79.7225 199,82.5C 201,85.1667 203,87.8333 205,90.5C 205.495,92.4727 205.662,94.4727 205.5,96.5C 201.975,96.6541 199.141,95.3208 197,92.5C 195.333,90.1667 193.667,87.8333 192,85.5C 190.293,83.0912 189.46,80.4245 189.5,77.5 Z"/></g>
<g><path style="opacity:1" fill="#f7c88b" d="M 245.5,83.5 C 249.846,83.3343 254.179,83.501 258.5,84C 259.727,85.5874 259.394,86.9207 257.5,88C 250.797,91.0339 243.797,92.0339 236.5,91C 235.167,90 235.167,89 236.5,88C 239.592,86.4541 242.592,84.9541 245.5,83.5 Z"/></g>
<g><path style="opacity:0.031" fill="#f4efe0" d="M 388.5,82.5 C 387.167,84.1667 387.167,85.8333 388.5,87.5C 387.167,86.8333 386.167,85.8333 385.5,84.5C 386.5,83.8333 387.5,83.1667 388.5,82.5 Z"/></g>
<g><path style="opacity:1" fill="#76584f" d="M 283.5,112.5 C 291.503,113.42 298.003,117.087 303,123.5C 303.483,124.448 303.649,125.448 303.5,126.5C 295.118,125.89 288.285,122.224 283,115.5C 282.53,114.423 282.697,113.423 283.5,112.5 Z"/></g>
<g><path style="opacity:1" fill="#76584f" d="M 232.5,121.5 C 237.706,120.12 240.706,121.953 241.5,127C 239.895,134.051 236.395,135.218 231,130.5C 230.207,127.259 230.707,124.259 232.5,121.5 Z"/></g>
<g><path style="opacity:1" fill="#775950" d="M 139.5,131.5 C 140.833,131.5 142.167,131.5 143.5,131.5C 143.509,133.308 143.009,134.975 142,136.5C 139.167,139.333 136.333,142.167 133.5,145C 130.928,147.287 127.928,148.453 124.5,148.5C 124.144,145.436 124.977,142.769 127,140.5C 130.969,137.111 135.136,134.111 139.5,131.5 Z"/></g>
<g><path style="opacity:1" fill="#71bad9" d="M 348.5,139.5 C 355.021,139.238 356.021,141.405 351.5,146C 345.23,149.4 338.563,151.234 331.5,151.5C 331.393,149.097 332.393,147.264 334.5,146C 338.877,142.975 343.544,140.808 348.5,139.5 Z"/></g>
<g><path style="opacity:0.995" fill="#f7c88b" d="M 197.5,146.5 C 199.861,146.674 202.194,147.007 204.5,147.5C 204.95,151.224 203.283,153.391 199.5,154C 193.891,155.384 188.225,155.717 182.5,155C 181.167,154 181.167,153 182.5,152C 187.299,149.238 192.299,147.404 197.5,146.5 Z"/></g>
<g><path style="opacity:1" fill="#f7c88b" d="M 133.5,176.5 C 139.051,175.007 142.051,177.007 142.5,182.5C 140.64,189.107 137.14,190.107 132,185.5C 131.068,182.177 131.568,179.177 133.5,176.5 Z"/></g>
<g><path style="opacity:1" fill="#6fc1de" d="M 252.5,173.5 C 254.716,174.203 256.549,175.536 258,177.5C 262.787,182.441 266.954,187.775 270.5,193.5C 268.745,194.072 267.078,194.906 265.5,196C 254.833,204.667 244.167,213.333 233.5,222C 231.536,223.451 230.203,225.284 229.5,227.5C 221.3,222.437 216.633,215.104 215.5,205.5C 216.922,205.291 218.255,204.791 219.5,204C 229.833,195.667 240.167,187.333 250.5,179C 253.082,177.662 253.749,175.829 252.5,173.5 Z"/></g>
<g><path style="opacity:1" fill="#785950" d="M 381.5,183.5 C 384.907,184.174 386.24,186.341 385.5,190C 385.279,196.673 383.113,202.507 379,207.5C 378.055,207.095 377.388,206.428 377,205.5C 375.655,197.553 377.155,190.219 381.5,183.5 Z"/></g>
<g><path style="opacity:0.659" fill="#fce3bf" d="M 435.5,180.5 C 437.031,185.25 437.698,190.25 437.5,195.5C 436.111,190.731 435.444,185.731 435.5,180.5 Z"/></g>
<g><path style="opacity:1" fill="#70bada" d="M 332.5,201.5 C 338.765,201.363 341.265,204.363 340,210.5C 336.333,214.5 332.667,214.5 329,210.5C 327.98,206.553 329.147,203.553 332.5,201.5 Z"/></g>
<g><path style="opacity:1" fill="#76584f" d="M 124.5,223.5 C 129.844,223.334 135.177,223.501 140.5,224C 147.134,226.61 146.801,228.61 139.5,230C 134.833,230.667 130.167,230.667 125.5,230C 120.559,228.31 120.225,226.144 124.5,223.5 Z"/></g>
<g><path style="opacity:0.353" fill="#fdedd4" d="M 437.5,225.5 C 437.461,229.733 436.795,233.733 435.5,237.5C 435.344,233.236 436.011,229.236 437.5,225.5 Z"/></g>
<g><path style="opacity:0.01" fill="#fdefd8" d="M 68.5,230.5 C 69.6437,234.964 70.3104,239.63 70.5,244.5C 68.8958,240.1 68.2291,235.434 68.5,230.5 Z"/></g>
<g><path style="opacity:1" fill="#75584f" d="M 299.5,249.5 C 302.518,249.335 305.518,249.502 308.5,250C 309.5,252.091 308.833,253.757 306.5,255C 300.193,258.028 293.526,259.195 286.5,258.5C 286.297,256.61 286.963,255.11 288.5,254C 292.157,252.178 295.824,250.678 299.5,249.5 Z"/></g>
<g><path style="opacity:1" fill="#f7c88b" d="M 345.5,254.5 C 351.051,253.007 354.051,255.007 354.5,260.5C 352.64,267.107 349.14,268.107 344,263.5C 343.068,260.177 343.568,257.177 345.5,254.5 Z"/></g>
<g><path style="opacity:1" fill="#6fbbda" d="M 244.5,260.5 C 253.818,260.655 255.818,264.488 250.5,272C 241.677,271.683 239.677,267.85 244.5,260.5 Z"/></g>
<g><path style="opacity:1" fill="#f8cb90" d="M 193.5,280.5 C 189.849,279.341 186.515,277.674 183.5,275.5C 182.564,274.026 181.23,273.026 179.5,272.5C 177.295,270.637 175.961,268.303 175.5,265.5C 184.284,266.223 191.284,270.056 196.5,277C 195.929,278.599 194.929,279.766 193.5,280.5 Z"/></g>
<g><path style="opacity:0.671" fill="#f9cbcf" d="M 175.5,272.5 C 176.833,272.5 178.167,272.5 179.5,272.5C 181.23,273.026 182.564,274.026 183.5,275.5C 180.603,274.871 177.936,273.871 175.5,272.5 Z"/></g>
<g><path style="opacity:1" fill="#f3a3a6" d="M 116.5,267.5 C 117.167,272.167 117.833,276.833 118.5,281.5C 118.158,282.338 117.492,282.672 116.5,282.5C 116.5,277.5 116.5,272.5 116.5,267.5 Z"/></g>
<g><path style="opacity:0.071" fill="#fbdde0" d="M 138.5,272.5 C 136.698,273.458 134.698,274.125 132.5,274.5C 133.99,272.72 135.99,272.054 138.5,272.5 Z"/></g>
<g><path style="opacity:0.345" fill="#fbd7dc" d="M 193.5,280.5 C 195.027,280.427 196.027,281.094 196.5,282.5C 194.973,282.573 193.973,281.906 193.5,280.5 Z"/></g>
<g><path style="opacity:0.725" fill="#fbd3da" d="M 203.5,288.5 C 205.5,288.5 206.5,289.5 206.5,291.5C 205.167,290.833 204.167,289.833 203.5,288.5 Z"/></g>
<g><path style="opacity:1" fill="#6ebbda" d="M 314.5,290.5 C 321.095,293.927 326.262,298.927 330,305.5C 331.254,309.111 330.088,310.611 326.5,310C 320.467,305.462 316.134,299.629 313.5,292.5C 313.863,291.817 314.196,291.15 314.5,290.5 Z"/></g>
<g><path style="opacity:0.922" fill="#f9c5d2" d="M 287.5,292.5 C 290.716,292.345 293.383,293.345 295.5,295.5C 292.603,294.871 289.936,293.871 287.5,292.5 Z"/></g>
<g><path style="opacity:0.733" fill="#facfd7" d="M 352.5,298.5 C 355.146,297.836 357.979,297.502 361,297.5C 365.442,297.326 369.609,297.993 373.5,299.5C 366.529,298.71 359.529,298.377 352.5,298.5 Z"/></g>
<g><path style="opacity:0.999" fill="#70c1de" d="M 94.5,303.5 C 95.1667,303.5 95.5,303.833 95.5,304.5C 95.5,305.5 95.5,306.5 95.5,307.5C 90.9724,316.61 88.4724,326.276 88,336.5C 86.3343,339.331 84.1676,341.664 81.5,343.5C 79.9731,343.427 78.9731,344.094 78.5,345.5C 74.153,349.845 69.4863,353.845 64.5,357.5C 60.8797,359.453 57.8797,362.119 55.5,365.5C 50.7897,369.611 45.9564,373.611 41,377.5C 36.3333,372.167 31.6667,366.833 27,361.5C 26.3333,360.833 26.3333,360.167 27,359.5C 47.5859,341.469 68.4193,323.803 89.5,306.5C 91.4113,305.925 93.078,304.925 94.5,303.5 Z"/></g>
<g><path style="opacity:0.412" fill="#fad1d9" d="M 309.5,302.5 C 311.027,302.427 312.027,303.094 312.5,304.5C 310.973,304.573 309.973,303.906 309.5,302.5 Z"/></g>
<g><path style="opacity:0.037" fill="#f9f3e6" d="M 98.5,302.5 C 98.2503,304.674 97.2503,306.341 95.5,307.5C 95.5,306.5 95.5,305.5 95.5,304.5C 96.5,303.833 97.5,303.167 98.5,302.5 Z"/></g>
<g><path style="opacity:0.82" fill="#cfe6e9" d="M 92.5,300.5 C 93.4013,301.29 94.0679,302.29 94.5,303.5C 93.078,304.925 91.4113,305.925 89.5,306.5C 91.0248,304.784 92.0248,302.784 92.5,300.5 Z"/></g>
<g><path style="opacity:0.396" fill="#fad4db" d="M 312.5,304.5 C 314.027,304.427 315.027,305.094 315.5,306.5C 313.973,306.573 312.973,305.906 312.5,304.5 Z"/></g>
<g><path style="opacity:0.812" fill="#fbd8dd" d="M 317.5,308.5 C 319.749,309.08 321.415,310.413 322.5,312.5C 320.251,311.92 318.585,310.587 317.5,308.5 Z"/></g>
<g><path style="opacity:0.999" fill="#f291b3" d="M 206.5,338.5 C 202.07,337.139 197.737,337.473 193.5,339.5C 181.661,344.177 178.828,352.177 185,363.5C 194.383,370.926 204.216,371.426 214.5,365C 222.017,363.979 225.517,367.146 225,374.5C 216.214,384.82 205.381,388.153 192.5,384.5C 190.485,383.076 188.152,382.41 185.5,382.5C 172.77,377.428 165.104,368.094 162.5,354.5C 162.375,348.797 162.708,343.13 163.5,337.5C 163.328,336.508 163.662,335.842 164.5,335.5C 165.906,335.027 166.573,334.027 166.5,332.5C 174.186,323.99 183.852,319.157 195.5,318C 204.58,316.75 213.247,318.083 221.5,322C 224.879,329.272 223.546,335.605 217.5,341C 213.672,340.663 210.005,339.83 206.5,338.5 Z"/></g>
<g><path style="opacity:0.663" fill="#fdebd0" d="M 396.5,318.5 C 397.833,319.833 399.167,319.833 400.5,318.5C 399.167,322.5 397.833,322.5 396.5,318.5 Z"/></g>
<g><path style="opacity:0.999" fill="#f292b3" d="M 246.5,324.5 C 245.57,334.999 245.57,345.332 246.5,355.5C 247.992,364.788 249.159,374.122 250,383.5C 238.639,388.651 232.306,384.984 231,372.5C 228.617,357.341 229.117,342.341 232.5,327.5C 233.906,327.027 234.573,326.027 234.5,324.5C 238.5,321.833 242.5,321.833 246.5,324.5 Z"/></g>
<g><path style="opacity:0.114" fill="#fde7e6" d="M 234.5,324.5 C 234.573,326.027 233.906,327.027 232.5,327.5C 232.427,325.973 233.094,324.973 234.5,324.5 Z"/></g>
<g><path style="opacity:0.318" fill="#fbdade" d="M 166.5,332.5 C 166.573,334.027 165.906,335.027 164.5,335.5C 164.427,333.973 165.094,332.973 166.5,332.5 Z"/></g>
<g><path style="opacity:0.533" fill="#f9c6d3" d="M 206.5,338.5 C 202.143,338.586 197.81,338.92 193.5,339.5C 197.737,337.473 202.07,337.139 206.5,338.5 Z"/></g>
<g><path style="opacity:0.886" fill="#f9c8d3" d="M 282.5,339.5 C 276.833,339.5 271.167,339.5 265.5,339.5C 271.177,336.941 276.844,336.941 282.5,339.5 Z"/></g>
<g><path style="opacity:0.999" fill="#f293b4" d="M 265.5,339.5 C 271.167,339.5 276.833,339.5 282.5,339.5C 288.546,340.37 292.713,343.703 295,349.5C 295.015,360.584 295.849,371.584 297.5,382.5C 293.081,388.912 288.248,388.912 283,382.5C 274.002,387.486 265.168,386.986 256.5,381C 255.418,379.67 254.751,378.17 254.5,376.5C 254.5,373.5 254.5,370.5 254.5,367.5C 256.836,360.156 261.836,355.822 269.5,354.5C 273.833,354.5 278.167,354.5 282.5,354.5C 282.715,352.821 282.048,351.821 280.5,351.5C 278.383,350.986 276.216,350.653 274,350.5C 269.559,351.093 265.226,352.093 261,353.5C 258.345,353.876 256.512,352.876 255.5,350.5C 255.517,348.435 255.85,346.435 256.5,344.5C 258.728,341.55 261.728,339.884 265.5,339.5 Z M 281.5,369.5 C 279.833,370.5 278.5,371.833 277.5,373.5C 271.111,374.622 268.944,372.289 271,366.5C 273.317,363.903 276.15,363.07 279.5,364C 281.155,365.444 281.822,367.278 281.5,369.5 Z"/></g>
<g><path style="opacity:0.999" fill="#f292b3" d="M 317.5,341.5 C 317.5,342.833 317.5,344.167 317.5,345.5C 318.791,345.737 319.791,345.404 320.5,344.5C 332.087,342.72 339.087,347.72 341.5,359.5C 341.41,362.152 342.076,364.485 343.5,366.5C 344.119,369.248 344.452,372.081 344.5,375C 346.198,383.677 342.864,387.01 334.5,385C 333.069,384.535 331.903,383.701 331,382.5C 330.667,377.167 330.333,371.833 330,366.5C 329.461,362.379 327.294,359.712 323.5,358.5C 320.797,359.039 319.297,360.705 319,363.5C 318.342,369.425 318.842,375.258 320.5,381C 320.22,382.395 319.553,383.562 318.5,384.5C 312.875,387.14 307.708,386.473 303,382.5C 301.991,380.975 301.491,379.308 301.5,377.5C 301.003,365.724 301.67,354.057 303.5,342.5C 305.332,340.106 307.832,339.106 311,339.5C 313.544,339.336 315.71,340.003 317.5,341.5 Z"/></g>
<g><path style="opacity:0.025" fill="#f7f6f0" d="M 81.5,343.5 C 83.1667,344.167 84.8333,344.833 86.5,345.5C 84.2188,345.077 82.5521,345.744 81.5,347.5C 80.7777,346.449 79.7777,345.782 78.5,345.5C 78.9731,344.094 79.9731,343.427 81.5,343.5 Z"/></g>
<g><path style="opacity:0.005" fill="#fdede9" d="M 95.5,345.5 C 97.1849,344.156 98.8516,344.323 100.5,346C 99.9558,346.717 99.2891,347.217 98.5,347.5C 98.1788,345.952 97.1788,345.285 95.5,345.5 Z"/></g>
<g><path style="opacity:0.137" fill="#fdebe8" d="M 317.5,341.5 C 318.1,342.9 319.1,343.9 320.5,344.5C 319.791,345.404 318.791,345.737 317.5,345.5C 317.5,344.167 317.5,342.833 317.5,341.5 Z"/></g>
<g><path style="opacity:0.846" fill="#f18aaf" d="M 86.5,345.5 C 89.5,345.5 92.5,345.5 95.5,345.5C 97.1788,345.285 98.1788,345.952 98.5,347.5C 92.8333,347.5 87.1667,347.5 81.5,347.5C 82.5521,345.744 84.2188,345.077 86.5,345.5 Z"/></g>
<g><path style="opacity:0.814" fill="#facbd5" d="M 163.5,337.5 C 162.708,343.13 162.375,348.797 162.5,354.5C 159.849,348.709 160.183,343.042 163.5,337.5 Z"/></g>
<g><path style="opacity:0.314" fill="#fad4da" d="M 256.5,344.5 C 255.85,346.435 255.517,348.435 255.5,350.5C 254.861,349.903 254.528,349.07 254.5,348C 254.387,346.301 255.053,345.134 256.5,344.5 Z"/></g>
<g><path style="opacity:0.587" fill="#f9c8d3" d="M 246.5,324.5 C 247.43,334.668 247.43,345.001 246.5,355.5C 245.57,345.332 245.57,334.999 246.5,324.5 Z"/></g>
<g><path style="opacity:0.571" fill="#f9cad4" d="M 280.5,351.5 C 282.048,351.821 282.715,352.821 282.5,354.5C 278.167,354.5 273.833,354.5 269.5,354.5C 273.312,353.676 277.312,353.176 281.5,353C 280.944,352.617 280.611,352.117 280.5,351.5 Z"/></g>
<g><path style="opacity:0.059" fill="#f7f7ef" d="M 64.5,357.5 C 64.5,358.5 64.5,359.5 64.5,360.5C 63.6236,360.369 62.9569,360.702 62.5,361.5C 61.9724,363.336 61.3058,365.003 60.5,366.5C 60.5386,365.244 60.0386,364.244 59,363.5C 58.1841,364.823 57.0174,365.489 55.5,365.5C 57.8797,362.119 60.8797,359.453 64.5,357.5 Z"/></g>
<g><path style="opacity:0.966" fill="#89cae1" d="M 415.5,360.5 C 416.113,366.271 415.446,371.604 413.5,376.5C 413.072,370.824 412.905,365.157 413,359.5C 414.461,358.117 415.294,358.451 415.5,360.5 Z"/></g>
<g><path style="opacity:0.991" fill="#f2ce9b" d="M 64.5,360.5 C 65.0967,360.735 65.4301,361.235 65.5,362C 64,367.167 62.5,372.333 61,377.5C 60.586,377.957 60.086,378.291 59.5,378.5C 58.5095,374.434 58.8428,370.434 60.5,366.5C 61.3058,365.003 61.9724,363.336 62.5,361.5C 62.9569,360.702 63.6236,360.369 64.5,360.5 Z"/></g>
<g><path style="opacity:0.786" fill="#f9c5d2" d="M 303.5,342.5 C 301.67,354.057 301.003,365.724 301.5,377.5C 299.097,368.017 298.93,358.35 301,348.5C 301.566,346.277 302.4,344.277 303.5,342.5 Z"/></g>
<g><path style="opacity:0.518" fill="#f9c9d4" d="M 341.5,359.5 C 342.924,361.515 343.59,363.848 343.5,366.5C 342.076,364.485 341.41,362.152 341.5,359.5 Z"/></g>
<g><path style="opacity:0.459" fill="#fcdfe1" d="M 254.5,367.5 C 254.5,370.5 254.5,373.5 254.5,376.5C 253.766,375.122 253.099,373.622 252.5,372C 253.099,370.378 253.766,368.878 254.5,367.5 Z"/></g>
<g><path style="opacity:0.451" fill="#fad3da" d="M 281.5,369.5 C 281.167,371.833 279.833,373.167 277.5,373.5C 278.5,371.833 279.833,370.5 281.5,369.5 Z"/></g>
<g><path style="opacity:0.258" fill="#e5f0ee" d="M 415.5,360.5 C 416.489,365.975 416.822,371.642 416.5,377.5C 415.209,377.737 414.209,377.404 413.5,376.5C 415.446,371.604 416.113,366.271 415.5,360.5 Z"/></g>
<g><path style="opacity:0.91" fill="#f8c3d0" d="M 185.5,382.5 C 188.152,382.41 190.485,383.076 192.5,384.5C 189.848,384.59 187.515,383.924 185.5,382.5 Z"/></g>
<g><path style="opacity:1" fill="#eab974" d="M 221.5,397.5 C 222.43,401.4 222.763,405.4 222.5,409.5C 221.923,413.075 219.923,415.409 216.5,416.5C 205.988,411.947 195.988,412.781 186.5,419C 181.686,424.727 181.186,430.894 185,437.5C 190.9,443.688 198.067,445.854 206.5,444C 210.29,442.354 214.123,440.854 218,439.5C 228.248,443.079 229.082,448.246 220.5,455C 217.211,457.478 213.544,459.144 209.5,460C 181.674,462.591 165.674,450.091 161.5,422.5C 164.76,406.077 174.76,396.577 191.5,394C 199.173,392.054 206.84,392.054 214.5,394C 217.281,394.522 219.615,395.689 221.5,397.5 Z"/></g>
<g><path style="opacity:0.999" fill="#ecbe7c" d="M 280.5,409.5 C 280.5,407.167 280.5,404.833 280.5,402.5C 283.926,397.422 288.259,396.588 293.5,400C 298.304,407.237 296.471,412.071 288,414.5C 284.441,414.156 281.941,412.489 280.5,409.5 Z"/></g>
<g><path style="opacity:0.949" fill="#f5d8b0" d="M 221.5,397.5 C 223.302,398.315 224.302,399.815 224.5,402C 223.984,404.669 223.317,407.169 222.5,409.5C 222.763,405.4 222.43,401.4 221.5,397.5 Z"/></g>
<g><path style="opacity:0.741" fill="#f6dfbc" d="M 280.5,402.5 C 280.5,404.833 280.5,407.167 280.5,409.5C 278.109,407.236 278.109,404.902 280.5,402.5 Z"/></g>
<g><path style="opacity:1" fill="#eaba75" d="M 316.5,416.5 C 316.215,418.288 316.548,419.955 317.5,421.5C 318.522,421.145 319.189,420.478 319.5,419.5C 328.247,417.455 334.747,420.455 339,428.5C 343.763,438.705 344.597,449.038 341.5,459.5C 338.833,459.5 336.167,459.5 333.5,459.5C 331.983,459.489 330.816,458.823 330,457.5C 329.667,451.833 329.333,446.167 329,440.5C 328.382,435.197 325.548,433.03 320.5,434C 319.283,435.648 318.45,437.481 318,439.5C 317.468,444.75 317.968,449.916 319.5,455C 319.646,457.034 318.98,458.701 317.5,460C 310.628,462.985 305.128,461.485 301,455.5C 300.506,453.866 300.34,452.199 300.5,450.5C 300.024,439.721 300.69,429.055 302.5,418.5C 302.574,416.589 303.574,415.422 305.5,415C 308.5,414.333 311.5,414.333 314.5,415C 315.416,415.278 316.082,415.778 316.5,416.5 Z"/></g>
<g><path style="opacity:0.596" fill="#f7e2c2" d="M 284.5,416.5 C 284.735,415.903 285.235,415.57 286,415.5C 288.346,415.99 290.513,416.657 292.5,417.5C 289.763,417.599 287.096,417.265 284.5,416.5 Z"/></g>
<g><path style="opacity:0.999" fill="#eab974" d="M 284.5,416.5 C 287.096,417.265 289.763,417.599 292.5,417.5C 294.5,417.5 295.5,418.5 295.5,420.5C 294.866,426.145 294.532,431.811 294.5,437.5C 295.221,443.137 295.887,448.803 296.5,454.5C 296.564,456.557 295.898,458.223 294.5,459.5C 290.5,459.5 286.5,459.5 282.5,459.5C 280.983,459.489 279.816,458.823 279,457.5C 277.388,447.029 277.221,436.696 278.5,426.5C 279.924,424.485 280.59,422.152 280.5,419.5C 280.694,417.088 282.027,416.088 284.5,416.5 Z"/></g>
<g><path style="opacity:1" fill="#eaba75" d="M 254.5,459.5 C 249.463,459.587 244.463,459.254 239.5,458.5C 236.162,457.577 233.662,455.577 232,452.5C 228.584,432.388 237.084,420.721 257.5,417.5C 267.638,418.638 272.971,424.305 273.5,434.5C 272.696,447.135 266.362,455.469 254.5,459.5 Z M 246.5,436.5 C 253.685,436.828 256.352,440.328 254.5,447C 251.814,448.46 249.314,447.96 247,445.5C 244.144,442.531 243.978,439.531 246.5,436.5 Z"/></g>
<g><path style="opacity:0.369" fill="#f7e0bf" d="M 316.5,416.5 C 317.1,417.9 318.1,418.9 319.5,419.5C 319.189,420.478 318.522,421.145 317.5,421.5C 316.548,419.955 316.215,418.288 316.5,416.5 Z"/></g>
<g><path style="opacity:0.792" fill="#f7dfbd" d="M 280.5,419.5 C 280.59,422.152 279.924,424.485 278.5,426.5C 278.41,423.848 279.076,421.515 280.5,419.5 Z"/></g>
<g><path style="opacity:0.345" fill="#faebd4" d="M 295.5,420.5 C 296.152,421.449 296.486,422.615 296.5,424C 296.056,428.678 295.389,433.178 294.5,437.5C 294.532,431.811 294.866,426.145 295.5,420.5 Z"/></g>
<g><path style="opacity:0.548" fill="#f6deba" d="M 302.5,418.5 C 300.69,429.055 300.024,439.721 300.5,450.5C 299.343,442.01 299.176,433.343 300,424.5C 300.566,422.277 301.4,420.277 302.5,418.5 Z"/></g>
<g><path style="opacity:0.796" fill="#f5d9b2" d="M 239.5,458.5 C 244.463,459.254 249.463,459.587 254.5,459.5C 249.389,461.984 244.389,461.651 239.5,458.5 Z"/></g>
<g><path style="opacity:0.722" fill="#f7dfbc" d="M 282.5,459.5 C 286.5,459.5 290.5,459.5 294.5,459.5C 290.544,461.854 286.544,461.854 282.5,459.5 Z"/></g>
<g><path style="opacity:0.78" fill="#f5dab3" d="M 333.5,459.5 C 336.167,459.5 338.833,459.5 341.5,459.5C 338.951,461.605 336.285,461.605 333.5,459.5 Z"/></g>
</svg>
